<svg xmlns="http://www.w3.org/2000/svg" width="32.908" height="32.864" viewBox="0 0 32.908 32.864">
  <g id="Group_75" data-name="Group 75" transform="translate(-5242.765 -3133.825)">
    <path id="Union_1" data-name="Union 1" d="M8.991,31.41A.993.993,0,0,1,8,30.417L7.95,21.874l-8.471.005a.993.993,0,0,1-.993-.994V8.935a.994.994,0,0,1,.993-.991H7.9s.039-.9,0-8.405a.993.993,0,0,1,.994-.993H20.845a.993.993,0,0,1,.993.993l.033,8.406,8.531.029a.993.993,0,0,1,.994.994V20.919a.994.994,0,0,1-.994.993c-7.538-.036-8.526-.049-8.526-.049l.059,8.555a.993.993,0,0,1-.993.993Z" transform="translate(5244.279 3135.279)" fill="#fff"/>
    <g id="logo-icon" transform="translate(5245 3136)">
      <path id="Path_222" data-name="Path 222" d="M18.835,8.906h0a.08.08,0,0,0,.079-.079V.945A.945.945,0,0,0,17.969,0H10.4a.945.945,0,0,0-.945.945v6.62A1.891,1.891,0,0,1,7.566,9.457H.945A.946.946,0,0,0,0,10.4v7.566a.945.945,0,0,0,.945.945H8.827a.08.08,0,0,0,.079-.079h0a9.928,9.928,0,0,1,9.927-9.926Z" fill="#8ccbd3"/>
      <path id="Path_223" data-name="Path 223" d="M39.393,21.425H30.882a9.456,9.456,0,0,0-9.456,9.456h0v8.512a.945.945,0,0,0,.945.945h7.566a.945.945,0,0,0,.945-.945v-6.62a1.891,1.891,0,0,1,1.891-1.891h6.62a.946.946,0,0,0,.946-.945V22.371a.946.946,0,0,0-.946-.946Z" transform="translate(-11.968 -11.968)" fill="#02a0ac"/>
    </g>
  </g>
</svg>
